{
  "asset": {
    "version": "2.0",
    "generator": "THREE.GLTFExporter"
  },
  "scenes": [
    {
      "nodes": [
        0
      ]
    }
  ],
  "scene": 0,
  "nodes": [
    {
      "children": [
        10
      ],
      "matrix": [
        0.01,
        0,
        0,
        0,
        0,
        0.01,
        0,
        0,
        0,
        0,
        0.01,
        0,
        0,
        0,
        0,
        1
      ]
    },
    {
      "matrix": [
        -0.5357451554374166,
        4.579669976578771e-16,
        -0.8443797299943542,
        0,
        -0.13871222191813914,
        0.9864142368411647,
        0.08801064053621964,
        0,
        0.8329081869665297,
        0.1642770627843788,
        -0.5284666486421503,
        0,
        1288.944869739954,
        228.50977072469576,
        -812.8301057820454,
        1
      ],
      "name": "Camera",
      "camera": 0
    },
    {
      "name": "Tooth",
      "mesh": 0
    },
    {
      "matrix": [
        1,
        0,
        0,
        0,
        0,
        1,
        0,
        0,
        0,
        0,
        1,
        0,
        27.136288719192493,
        6.444373865455304,
        16.274152358025674,
        1
      ],
      "name": "Arrow",
      "mesh": 1
    },
    {
      "matrix": [
        1,
        0,
        0,
        0,
        0,
        1,
        0,
        0,
        0,
        0,
        1,
        0,
        0,
        -38,
        0,
        1
      ],
      "name": "tooth and arrow",
      "children": [
        2,
        3
      ]
    },
    {
      "matrix": [
        1,
        0,
        0,
        0,
        0,
        1,
        0,
        0,
        0,
        0,
        1,
        0,
        913.9547182967933,
        -1019.134484274553,
        -759.1545226164885,
        1
      ],
      "name": "Point Light 3",
      "extensions": {
        "KHR_lights_punctual": {
          "light": 0
        }
      }
    },
    {
      "matrix": [
        1,
        0,
        0,
        0,
        0,
        1,
        0,
        0,
        0,
        0,
        1,
        0,
        1093.9892950308276,
        378.5291001549467,
        154.58043578246105,
        1
      ],
      "name": "Point Light 2",
      "extensions": {
        "KHR_lights_punctual": {
          "light": 1
        }
      }
    },
    {
      "matrix": [
        0.5667495766771755,
        0.4619216780090414,
        -0.6822193787349886,
        0,
        0.6317762904436163,
        -0.7751507716781965,
        0,
        0,
        -0.5288228778802462,
        -0.4310100283659396,
        -0.7311475359176465,
        0,
        0,
        0,
        0,
        1
      ],
      "name": "Directional Light",
      "extensions": {
        "KHR_lights_punctual": {
          "light": 2
        }
      }
    },
    {
      "matrix": [
        -0.5447802988327528,
        1.1796119636642288e-16,
        -0.8385788132332564,
        0,
        -0.09462636052314599,
        0.9936130187521113,
        0.06147374122713047,
        0,
        0.8332228260782589,
        0.11284134422416547,
        -0.5413007972798887,
        0,
        1275.8957043134626,
        135.87698977005385,
        -868.6611196713544,
        1
      ],
      "name": "Personal Camera",
      "camera": 1
    },
    {
      "matrix": [
        1,
        0,
        0,
        0,
        0,
        1,
        0,
        0,
        0,
        0,
        1,
        0,
        0,
        1,
        0,
        1
      ],
      "name": "Default Ambient Light"
    },
    {
      "name": "Scene 1",
      "children": [
        1,
        4,
        5,
        6,
        7,
        8,
        9
      ]
    }
  ],
  "cameras": [
    {
      "type": "perspective",
      "perspective": {
        "aspectRatio": 1,
        "yfov": 0.8028514559173916,
        "zfar": 100000,
        "znear": 70
      },
      "name": "Camera"
    },
    {
      "type": "orthographic",
      "orthographic": {
        "xmag": 12.453800562500001,
        "ymag": 6.5241950625000005,
        "zfar": 100000,
        "znear": 0
      },
      "name": "Camera"
    }
  ],
  "bufferViews": [
    {
      "buffer": 0,
      "byteOffset": 0,
      "byteLength": 110016,
      "target": 34962,
      "byteStride": 12
    },
    {
      "buffer": 0,
      "byteOffset": 110016,
      "byteLength": 110016,
      "target": 34962,
      "byteStride": 12
    },
    {
      "buffer": 0,
      "byteOffset": 220032,
      "byteLength": 73344,
      "target": 34962,
      "byteStride": 8
    },
    {
      "buffer": 0,
      "byteOffset": 293376,
      "byteLength": 473832,
      "target": 34962,
      "byteStride": 12
    },
    {
      "buffer": 0,
      "byteOffset": 767208,
      "byteLength": 473832,
      "target": 34962,
      "byteStride": 12
    },
    {
      "buffer": 0,
      "byteOffset": 1241040,
      "byteLength": 315888,
      "target": 34962,
      "byteStride": 8
    }
  ],
  "buffers": [
    {
      "byteLength": 1556928,
      "uri": "data:application/octet-stream;base64,"
    }
  ],
  "accessors": [
    {
      "bufferView": 0,
      "componentType": 5126,
      "count": 9168,
      "max": [
        205.4281005859375,
        333.67669677734375,
        198.0353240966797
      ],
      "min": [
        -205.4281005859375,
        -333.67669677734375,
        -198.0353240966797
      ],
      "type": "VEC3"
    },
    {
      "bufferView": 1,
      "componentType": 5126,
      "count": 9168,
      "max": [
        0.9999999403953552,
        0.9999845027923584,
        0.9997410178184509
      ],
      "min": [
        -0.9999470114707947,
        -0.9981551766395569,
        -0.9999748468399048
      ],
      "type": "VEC3"
    },
    {
      "bufferView": 2,
      "componentType": 5126,
      "count": 9168,
      "max": [
        0.9968725442886353,
        0.9968725442886353
      ],
      "min": [
        0.0031274529173970222,
        0.12398290634155273
      ],
      "type": "VEC2"
    },
    {
      "bufferView": 3,
      "componentType": 5126,
      "count": 39486,
      "max": [
        285.60870361328125,
        267.24224853515625,
        289.0677490234375
      ],
      "min": [
        -285.60870361328125,
        -267.24224853515625,
        -289.0677490234375
      ],
      "type": "VEC3"
    },
    {
      "bufferView": 4,
      "componentType": 5126,
      "count": 39486,
      "max": [
        0.9989019632339478,
        0.9877637624740601,
        0.9991840124130249
      ],
      "min": [
        -0.9966819882392883,
        -0.995039701461792,
        -0.9976301789283752
      ],
      "type": "VEC3"
    },
    {
      "bufferView": 5,
      "componentType": 5126,
      "count": 39486,
      "max": [
        1,
        1
      ],
      "min": [
        0,
        0
      ],
      "type": "VEC2"
    }
  ],
  "materials": [
    {
      "pbrMetallicRoughness": {
        "baseColorFactor": [
          0.7993618110159266,
          0.8384174687204995,
          0.8450945524038476,
          1
        ],
        "metallicFactor": 0,
        "roughnessFactor": 0.995
      },
      "doubleSided": false
    },
    {
      "pbrMetallicRoughness": {
        "baseColorFactor": [
          0,
          0.03142176602820626,
          0.5673127957897277,
          1
        ],
        "metallicFactor": 0,
        "roughnessFactor": 0.931934527926947
      },
      "doubleSided": false
    }
  ],
  "meshes": [
    {
      "primitives": [
        {
          "mode": 4,
          "attributes": {
            "POSITION": 0,
            "NORMAL": 1,
            "TEXCOORD_0": 2
          },
          "extras": {
            "parameters": {
              "width": 410.856201171875,
              "height": 667.3533935546875,
              "depth": 396.0706481933594,
              "subdivisions": 0
            },
            "type": "NonParametricGeometry"
          },
          "material": 0
        }
      ]
    },
    {
      "primitives": [
        {
          "mode": 4,
          "attributes": {
            "POSITION": 3,
            "NORMAL": 4,
            "TEXCOORD_0": 5
          },
          "extras": {
            "parameters": {
              "width": 571.2174072265625,
              "height": 534.4844970703125,
              "depth": 578.135498046875,
              "subdivisions": 0
            },
            "type": "NonParametricGeometry"
          },
          "material": 1
        }
      ]
    }
  ],
  "extensions": {
    "KHR_lights_punctual": {
      "lights": [
        {
          "name": "Point Light 3",
          "color": [
            0.9514563106796117,
            0.9909708737864078,
            1
          ],
          "intensity": 1,
          "type": "point",
          "range": 2000
        },
        {
          "name": "Point Light 2",
          "color": [
            0.9514563106796117,
            0.9909708737864078,
            1
          ],
          "intensity": 0.231,
          "type": "point",
          "range": 2000
        },
        {
          "name": "Directional Light",
          "color": [
            1,
            1,
            1
          ],
          "intensity": 0.7,
          "type": "directional"
        }
      ]
    }
  },
  "extensionsUsed": [
    "KHR_lights_punctual"
  ]
}